<svg width="848" height="683" viewBox="0 0 848 683" fill="none" xmlns="http://www.w3.org/2000/svg">
<g filter="url(#filter0_d_241_633)">
<path d="M801.657 310.244C801.657 455.993 632.574 574.145 424 574.145C371.621 574.145 295.558 558.703 255.3 548.607C77.0156 665.421 103.854 682.353 159.448 498.576C89.6427 450.69 46.3429 384 46.3429 310.244C46.3429 164.495 215.426 46.3429 424 46.3429C632.574 46.3429 801.657 164.495 801.657 310.244Z" fill="white"/>
<path d="M166.102 500.589L167.575 495.721L163.381 492.844C94.8654 445.842 53.2943 381.067 53.2943 310.244C53.2943 240.266 93.8762 176.197 160.938 129.336C227.977 82.49 320.962 53.2943 424 53.2943C527.038 53.2943 620.023 82.49 687.062 129.336C754.124 176.197 794.706 240.266 794.706 310.244C794.706 380.222 754.124 444.291 687.062 491.152C620.023 537.998 527.038 567.194 424 567.194C372.523 567.194 297.154 551.936 256.991 541.864L254.038 541.123L251.491 542.792C215.951 566.078 188.503 585.432 167.89 599.966C162.585 603.707 157.733 607.128 153.312 610.215C142.431 617.812 134.372 623.236 128.555 626.511C127.162 627.295 125.971 627.913 124.961 628.391C125.018 628.051 125.084 627.686 125.16 627.296C126.212 621.892 128.693 613.847 132.489 602.569C134.239 597.365 136.246 591.543 138.47 585.088C145.769 563.906 155.418 535.907 166.102 500.589ZM121.314 629.71C121.315 629.709 121.333 629.706 121.369 629.706C121.331 629.71 121.314 629.711 121.314 629.71Z" stroke="black" stroke-width="13.9029"/>
</g>
<defs>
<filter id="filter0_d_241_633" x="27.8058" y="46.3429" width="792.389" height="627.389" filterUnits="userSpaceOnUse" color-interpolation-filters="sRGB">
<feFlood flood-opacity="0" result="BackgroundImageFix"/>
<feColorMatrix in="SourceAlpha" type="matrix" values="0 0 0 0 0 0 0 0 0 0 0 0 0 0 0 0 0 0 127 0" result="hardAlpha"/>
<feOffset dy="18.5371"/>
<feGaussianBlur stdDeviation="9.26857"/>
<feComposite in2="hardAlpha" operator="out"/>
<feColorMatrix type="matrix" values="0 0 0 0 0 0 0 0 0 0 0 0 0 0 0 0 0 0 0.25 0"/>
<feBlend mode="normal" in2="BackgroundImageFix" result="effect1_dropShadow_241_633"/>
<feBlend mode="normal" in="SourceGraphic" in2="effect1_dropShadow_241_633" result="shape"/>
</filter>
</defs>
</svg>
