<svg width="438" height="168" viewBox="0 0 438 168" fill="none" xmlns="http://www.w3.org/2000/svg">
<path d="M63.648 64.688V71.6L14.256 95.36L63.648 119.264V126.176L5.76 98.672V92.192L63.648 64.688ZM120.016 36.896C128.368 36.896 135.328 38.912 140.896 42.944C148.384 48.32 152.128 56.72 152.128 68.144C152.128 76.4 149.824 83.456 145.216 89.312C140.224 95.552 133.264 98.672 124.336 98.672C119.632 98.672 115.36 97.568 111.52 95.36C107.68 93.056 105.424 89.168 104.752 83.696L106.048 83.264C107.104 87.392 109.552 90.272 113.392 91.904C115.984 93.056 118.288 93.632 120.304 93.632C128.176 93.632 133.888 90.56 137.44 84.416C140.032 79.904 141.328 74.528 141.328 68.288C141.328 58.304 138.544 51.104 132.976 46.688C128.752 43.232 123.376 41.504 116.848 41.504C115.312 41.504 113.968 41.6 112.816 41.792C111.76 41.888 106.96 42.656 98.4161 44.096V129.488C98.5121 132.08 99.4721 134.24 101.296 135.968C103.12 137.696 105.232 138.56 107.632 138.56H109.504V140H77.9681V138.56H79.8401C82.2401 138.56 84.3521 137.696 86.1761 135.968C88.0001 134.24 88.9601 132.08 89.0561 129.488V51.584C89.0561 49.088 88.3361 47.168 86.8961 45.824C85.4561 44.384 83.5841 43.664 81.2801 43.664C80.8001 43.664 80.3201 43.712 79.8401 43.808L78.1121 43.952L77.8241 42.512C82.8161 42.032 89.4881 41.12 97.8401 39.776C106.288 38.336 111.52 37.52 113.536 37.328C115.552 37.04 117.712 36.896 120.016 36.896ZM196.226 138.56H198.098V140H166.562V138.56H168.434C170.93 138.56 173.042 137.696 174.77 135.968C176.594 134.144 177.554 131.984 177.65 129.488V49.568C177.554 47.072 176.594 44.96 174.77 43.232C173.042 41.504 170.93 40.64 168.434 40.64H166.562V39.2H198.098V40.64H196.226C193.73 40.64 191.57 41.504 189.746 43.232C188.018 44.96 187.106 47.072 187.01 49.568V129.488C187.01 131.984 187.922 134.144 189.746 135.968C191.57 137.696 193.73 138.56 196.226 138.56ZM296.018 161.6V163.04C292.37 163.904 288.722 164.336 285.074 164.336C269.33 164.336 254.066 156.464 239.282 140.72L191.618 89.888L225.602 47.264C226.37 46.304 226.754 45.44 226.754 44.672C226.754 43.904 226.61 43.232 226.322 42.656C225.554 41.216 224.162 40.496 222.146 40.496H220.706V39.2H251.09V40.496H250.514C244.178 40.496 238.994 42.752 234.962 47.264L201.41 86L250.37 138.272C256.706 145.088 263.81 150.656 271.682 154.976C279.65 159.392 287.762 161.6 296.018 161.6ZM261.024 139.28L313.008 37.184L317.472 39.776L265.488 142.016L261.024 139.28ZM324.276 64.688L382.164 92.192V98.672L324.276 126.176V119.264L373.524 95.36L324.276 71.6V64.688Z" fill="white"/>
</svg>
